# File created by Blade
# Date/Time:  Wed Jan 21 15:23:43 2015
# Frame Rate: 120.000 fps
#------------------------------------------------------
:FULLY-SPECIFIED
:DEGREES
1549
root 20.915597 35.748703 -20.875059 -180.159673 4.166053 -178.223548
Spine -6.159985 3.543647 1.016723
Head 4.010402 0.537657 0.790779
LeftShoulder -10.125552 -29.750745 11.413121
LeftArm 0.573062 7.691128 -14.737653
LeftForeArm 9.555221 -0.000000 -1.580328
LeftHand -6.829925 -0.000000 -10.332426
LeftHandThumb1 -26.253704 0.000000 33.147579
RightShoulder -7.425414 -8.669111 -4.427680
RightArm 11.152358 22.199586 24.144639
RightForeArm -32.192222 -0.000000 4.580316
RightHand 1.007230 0.000000 12.395676
RightHandThumb1 -24.326973 -0.000000 -32.862282
LeftUpLeg 6.055767 9.905284 0.820131
LeftLeg -2.316344 -0.000000 0.000000
LeftFoot -21.046921 24.944769 -12.439074
LeftToeBase 25.096890 -0.000000 -0.000000
RightUpLeg 3.232107 -4.487671 2.089701
RightLeg 0.939600 -0.000000 -0.000000
RightFoot -19.953510 -23.130619 13.545954
RightToeBase 23.205733 -0.000000 -0.000000
1550
root 20.946542 35.749140 -20.840598 -179.910707 4.243270 -178.406301
Spine -6.389264 3.695625 0.963910
Head 3.989435 0.528697 0.492088
LeftShoulder -10.325982 -30.009119 11.594108
LeftArm 0.663774 7.476526 -14.169844
LeftForeArm 9.653019 0.000000 -1.549975
LeftHand -6.920798 0.000000 -9.959416
LeftHandThumb1 -26.253704 0.000000 33.147579
RightShoulder -7.437573 -8.587181 -4.849883
RightArm 10.816329 22.991830 23.650256
RightForeArm -32.306091 -0.000000 4.588288
RightHand 0.667629 0.000000 12.247015
RightHandThumb1 -24.326973 -0.000000 -32.862282
LeftUpLeg 5.473412 10.074790 0.638115
LeftLeg -1.797636 -0.000000 0.000000
LeftFoot -21.183955 24.863986 -12.574644
LeftToeBase 25.084605 -0.000000 -0.000000
RightUpLeg 2.850474 -4.041181 1.992262
RightLeg 1.074883 -0.000000 -0.000000
RightFoot -20.107016 -23.481516 13.369911
RightToeBase 23.453131 -0.000000 -0.000000
1551
root 21.013974 35.752024 -20.851472 -179.842008 4.061073 -178.550479
Spine -6.564986 3.627485 0.800516
Head 4.132985 0.448695 0.412751
LeftShoulder -10.460329 -30.149880 11.888702
LeftArm 0.814758 7.229814 -13.619964
LeftForeArm 9.825643 -0.000000 -1.574802
LeftHand -6.952444 -0.000000 -9.634398
LeftHandThumb1 -26.253704 0.000000 33.147579
RightShoulder -7.518240 -8.551641 -5.121213
RightArm 10.515217 23.587736 23.143125
RightForeArm -32.434022 -0.000000 4.463229
RightHand 0.505877 0.000000 11.869331
RightHandThumb1 -24.326973 -0.000000 -32.862282
LeftUpLeg 5.071924 10.432433 0.636764
LeftLeg -1.175937 -0.000000 0.000000
LeftFoot -21.266513 24.301083 -12.617965
LeftToeBase 25.054953 -0.000000 -0.000000
RightUpLeg 2.901168 -4.022616 1.961162
RightLeg 0.912424 -0.000000 -0.000000
RightFoot -20.147004 -23.671394 13.307210
RightToeBase 23.465411 -0.000000 -0.000000
1552
root 21.078291 35.755251 -20.861412 -179.803327 3.764525 -178.672655
Spine -6.683558 3.474136 0.685228
Head 4.270702 0.377917 0.284224
LeftShoulder -10.590195 -30.333607 12.137962
LeftArm 0.991187 7.198592 -13.085092
LeftForeArm 9.834980 -0.000000 -1.592790
LeftHand -6.970400 -0.000000 -9.368918
LeftHandThumb1 -26.253704 0.000000 33.147579
RightShoulder -7.622074 -8.517400 -5.398401
RightArm 10.199263 24.237347 22.623543
RightForeArm -32.454446 0.000000 4.405240
RightHand 0.467333 -0.000000 11.740789
RightHandThumb1 -24.326973 -0.000000 -32.862282
LeftUpLeg 4.736891 10.440012 0.642214
LeftLeg -0.656216 -0.000000 0.000000
LeftFoot -21.341573 23.934375 -12.714013
LeftToeBase 25.100714 -0.000000 -0.000000
RightUpLeg 2.999877 -4.147701 1.943030
RightLeg 0.730952 -0.000000 -0.000000
RightFoot -20.190063 -23.809511 13.325547
RightToeBase 23.463705 -0.000000 -0.000000
